<svg width="1289" height="346" viewBox="0 0 1289 346" fill="none" xmlns="http://www.w3.org/2000/svg">
<rect y="81" width="1231" height="206" rx="30" fill="#1627C4"/>
<circle cx="182.5" cy="152.5" r="16.5" stroke="#46ADFA" stroke-width="2"/>
<circle cx="989.5" cy="218.5" r="16.5" stroke="#46ADFA" stroke-width="2"/>
<path d="M75 66.7881C125.771 615.593 371.988 121.4 617.848 22.1197L840.47 291.5L1032.96 332L1057.99 315.133C1057.99 315.133 1164.96 267.74 1173.46 158.66C1181.96 49.58 1258.8 37.8605 1258.8 37.8605L1269 33.161L1248.59 8" stroke="white" stroke-opacity="0.2" stroke-width="25"/>
<path d="M568.645 170.505C569.952 170.738 571.06 171.427 571.97 172.57C572.88 173.713 573.335 175.008 573.335 176.455C573.335 177.692 573.008 178.812 572.355 179.815C571.725 180.795 570.803 181.577 569.59 182.16C568.377 182.72 566.965 183 565.355 183H555.625V158.675H564.9C566.557 158.675 567.98 158.955 569.17 159.515C570.36 160.075 571.258 160.833 571.865 161.79C572.472 162.723 572.775 163.773 572.775 164.94C572.775 166.34 572.402 167.507 571.655 168.44C570.908 169.373 569.905 170.062 568.645 170.505ZM559.615 168.895H564.55C565.857 168.895 566.872 168.603 567.595 168.02C568.342 167.413 568.715 166.55 568.715 165.43C568.715 164.333 568.342 163.482 567.595 162.875C566.872 162.245 565.857 161.93 564.55 161.93H559.615V168.895ZM565.005 179.745C566.358 179.745 567.42 179.418 568.19 178.765C568.96 178.112 569.345 177.202 569.345 176.035C569.345 174.845 568.937 173.9 568.12 173.2C567.303 172.5 566.218 172.15 564.865 172.15H559.615V179.745H565.005ZM581.661 157.1V183H577.671V157.1H581.661ZM595.264 183.315C593.444 183.315 591.799 182.907 590.329 182.09C588.859 181.25 587.704 180.083 586.864 178.59C586.024 177.073 585.604 175.323 585.604 173.34C585.604 171.38 586.036 169.642 586.899 168.125C587.763 166.608 588.941 165.442 590.434 164.625C591.928 163.808 593.596 163.4 595.439 163.4C597.283 163.4 598.951 163.808 600.444 164.625C601.938 165.442 603.116 166.608 603.979 168.125C604.843 169.642 605.274 171.38 605.274 173.34C605.274 175.3 604.831 177.038 603.944 178.555C603.058 180.072 601.844 181.25 600.304 182.09C598.788 182.907 597.108 183.315 595.264 183.315ZM595.264 179.85C596.291 179.85 597.248 179.605 598.134 179.115C599.044 178.625 599.779 177.89 600.339 176.91C600.899 175.93 601.179 174.74 601.179 173.34C601.179 171.94 600.911 170.762 600.374 169.805C599.838 168.825 599.126 168.09 598.239 167.6C597.353 167.11 596.396 166.865 595.369 166.865C594.343 166.865 593.386 167.11 592.499 167.6C591.636 168.09 590.948 168.825 590.434 169.805C589.921 170.762 589.664 171.94 589.664 173.34C589.664 175.417 590.189 177.027 591.239 178.17C592.313 179.29 593.654 179.85 595.264 179.85ZM616.989 163.4C618.482 163.4 619.8 163.703 620.944 164.31C622.11 164.893 623.02 165.628 623.674 166.515V163.715H627.699V183.315C627.699 185.088 627.325 186.663 626.579 188.04C625.832 189.44 624.747 190.537 623.324 191.33C621.924 192.123 620.244 192.52 618.284 192.52C615.67 192.52 613.5 191.902 611.774 190.665C610.047 189.452 609.067 187.795 608.834 185.695H612.789C613.092 186.698 613.734 187.503 614.714 188.11C615.717 188.74 616.907 189.055 618.284 189.055C619.894 189.055 621.189 188.565 622.169 187.585C623.172 186.605 623.674 185.182 623.674 183.315V180.095C622.997 181.005 622.075 181.775 620.909 182.405C619.765 183.012 618.459 183.315 616.989 183.315C615.309 183.315 613.769 182.895 612.369 182.055C610.992 181.192 609.895 180.002 609.079 178.485C608.285 176.945 607.889 175.207 607.889 173.27C607.889 171.333 608.285 169.618 609.079 168.125C609.895 166.632 610.992 165.477 612.369 164.66C613.769 163.82 615.309 163.4 616.989 163.4ZM623.674 173.34C623.674 172.01 623.394 170.855 622.834 169.875C622.297 168.895 621.585 168.148 620.699 167.635C619.812 167.122 618.855 166.865 617.829 166.865C616.802 166.865 615.845 167.122 614.959 167.635C614.072 168.125 613.349 168.86 612.789 169.84C612.252 170.797 611.984 171.94 611.984 173.27C611.984 174.6 612.252 175.767 612.789 176.77C613.349 177.773 614.072 178.543 614.959 179.08C615.869 179.593 616.825 179.85 617.829 179.85C618.855 179.85 619.812 179.593 620.699 179.08C621.585 178.567 622.297 177.82 622.834 176.84C623.394 175.837 623.674 174.67 623.674 173.34Z" fill="white"/>
<line x1="554.5" y1="129.5" x2="554.5" y2="140.5" stroke="white" stroke-width="3" stroke-linecap="round"/>
<line x1="527.121" y1="136.994" x2="542.433" y2="152.218" stroke="white" stroke-width="3" stroke-linecap="round"/>
<line x1="520.685" y1="163.711" x2="532.711" y2="165.315" stroke="white" stroke-width="3" stroke-linecap="round"/>
<path d="M631 216.91C636.062 217.689 643.275 219.271 648.362 217.333C650.878 216.374 654.471 213.417 656.395 211.493C657.51 210.378 659.635 209.848 660.385 208.348C661.696 205.726 659.295 203.651 657.161 206.076C654.245 209.39 653.38 213.522 655.047 217.809C656.007 220.277 662.013 219.364 663.926 219.183C667.637 218.831 671.682 217.541 674.761 215.377C677.118 213.721 682.371 211.066 682.371 207.635C682.371 206.196 681.732 206.446 680.468 206.446C677.756 206.446 677.139 207.806 677.139 210.357C677.139 225.267 698.677 218.329 707.105 215.959" stroke="#46ADFA" stroke-width="2" stroke-linecap="round"/>
</svg>
