<svg width="23" height="24" viewBox="0 0 23 24" fill="none" xmlns="http://www.w3.org/2000/svg">
<path d="M17.1722 15.4741L21.2512 19.7561L19.9036 21.1711L15.8255 16.8881C14.3081 18.1654 12.4208 18.8601 10.476 18.8571C5.74457 18.8571 1.90457 14.8251 1.90457 9.85715C1.90457 4.88915 5.74457 0.857147 10.476 0.857147C15.2074 0.857147 19.0474 4.88915 19.0474 9.85715C19.0502 11.8991 18.3886 13.8809 17.1722 15.4741ZM15.2617 14.7321C16.4704 13.427 17.1454 11.6776 17.1427 9.85715C17.1427 5.98915 14.1589 2.85715 10.476 2.85715C6.79219 2.85715 3.80933 5.98915 3.80933 9.85715C3.80933 13.7241 6.79219 16.8571 10.476 16.8571C12.2097 16.86 13.8759 16.1513 15.1189 14.8821L15.2617 14.7321Z" fill="#8C98AA"/>
</svg>
